<svg viewBox="0 0 32 32" fill="none" xmlns="http://www.w3.org/2000/svg">
  <rect width="32" height="32" rx="6" fill="#0A0A0B"/>
  <!-- Wave / incident timeline — VoyageBlack blue -->
  <path d="M4 11 C7 8 9 14 12 11 C15 8 17 14 20 11 C23 8 25 14 28 11" stroke="#3B82F6" stroke-width="1.5" stroke-linecap="round"/>
  <path d="M4 16 C7 13 9 19 12 16 C15 13 17 19 20 16 C23 13 25 19 28 16" stroke="#3B82F6" stroke-width="1.5" stroke-linecap="round" stroke-opacity="0.65"/>
  <path d="M4 21 C7 18 9 24 12 21 C15 18 17 24 20 21 C23 18 25 24 28 21" stroke="#3B82F6" stroke-width="1.5" stroke-linecap="round" stroke-opacity="0.3"/>
</svg>
